# xmcd
#
# Track frame offsets:
#	150
#	17696
#	38158
#	58378
#	80253
#	99771
#	118593
#	134101
#	150401
#	168066
#	185991
#	203231
#
# Disc length: 3053 seconds
#
# Revision: 1
# Processed by: cddbd v1.5PL3 Copyright (c) Steve Scherf et al.
# Submitted via: audiograbber 1.82.02
#
DISCID=9c0beb0c
DTITLE=Venus - Kezdjük ujra
DYEAR=2003
DGENRE=
TTITLE0=Mire Jó?
TTITLE1=Kezdjük újra
TTITLE2=Bújj hozzám
TTITLE3=Veled létezem
TTITLE4=Fel a fejjel
TTITLE5=Engedd
TTITLE6=Sodródj az árral
TTITLE7=Félútig tart a bánat
TTITLE8=Ki vagy te?
TTITLE9=Lógatom a lábamat
TTITLE10=Ha elhagyott minden
TTITLE11=Mást írt az ég
EXTD=
EXTT0=
EXTT1=
EXTT2=
EXTT3=
EXTT4=
EXTT5=
EXTT6=
EXTT7=
EXTT8=
EXTT9=
EXTT10=
EXTT11=
PLAYORDER=
